<svg width="62" height="71" viewBox="0 0 62 71" fill="none" xmlns="http://www.w3.org/2000/svg">
<g filter="url(#filter0_d_1061_25027)">
<path d="M31.02 5C27.7338 4.99824 24.4795 5.64654 21.4432 6.90779C18.4068 8.16905 15.648 10.0186 13.3243 12.3506C11.0006 14.6825 9.15771 17.4513 7.90096 20.4985C6.64421 23.5458 5.99825 26.8117 6 30.1097C5.9998 35.4219 7.67926 40.5972 10.7966 44.8905C13.9139 49.1837 18.3084 52.3736 23.3472 54.0007C24.7927 54.4897 26.0903 55.3401 27.1175 56.4718C28.1448 57.6035 28.8678 58.9791 29.2186 60.469L29.5655 61.8081C29.6306 62.1438 29.8099 62.4463 30.0729 62.6637C30.3358 62.8812 30.6659 63.0001 31.0067 63C31.3451 62.997 31.6721 62.8767 31.9323 62.6595C32.1925 62.4423 32.3699 62.1416 32.4345 61.8081L32.7814 60.469C33.1321 58.9791 33.8552 57.6035 34.8825 56.4718C35.9097 55.3401 37.2073 54.4897 38.6528 54.0007C43.6916 52.3736 48.0861 49.1837 51.2034 44.8905C54.3207 40.5972 56.0002 35.4219 56 30.1097C56 23.4571 53.3695 17.0765 48.686 12.3687C44.0024 7.66083 37.6488 5.01065 31.02 5Z" fill="#741F33"/>
<path d="M31.0203 4.5L31.0208 4.5C37.7826 4.51086 44.2635 7.21425 49.0404 12.016C53.8173 16.8177 56.5 23.3252 56.5 30.1097C56.5002 35.5273 54.7874 40.8054 51.608 45.1842C48.4292 49.5621 43.9483 52.8153 38.8098 54.4754C37.4463 54.9373 36.2221 55.7399 35.2527 56.8079C34.2825 57.8767 33.5994 59.1761 33.2681 60.5835L33.2656 60.5944L33.2654 60.5944L32.9221 61.9196C32.8331 62.3592 32.5971 62.7558 32.2527 63.0433C31.9039 63.3345 31.4653 63.4959 31.0111 63.5L31.0068 63.5C30.5495 63.5001 30.1067 63.3405 29.7542 63.049C29.406 62.7611 29.1675 62.3622 29.0779 61.9196L28.7345 60.5944L28.7317 60.5836L28.7319 60.5835C28.4005 59.1761 27.7175 57.8767 26.7473 56.8079C25.7778 55.7399 24.5537 54.9373 23.1902 54.4754C18.0517 52.8153 13.5708 49.5621 10.392 45.1842C7.21263 40.8055 5.49986 35.5275 5.5 30.1099L31.0203 4.5ZM31.0203 4.5C27.6682 4.49821 24.3486 5.15951 21.2514 6.44604M31.0203 4.5L21.2514 6.44604M21.2514 6.44604C18.1542 7.73257 15.3401 9.61909 12.9701 11.9976M21.2514 6.44604L12.9701 11.9976M12.9701 11.9976C10.6001 14.3762 8.72046 17.2001 7.43873 20.3079M12.9701 11.9976L7.43873 20.3079M7.43873 20.3079C6.15703 23.4156 5.49825 26.7464 5.5 30.1097L7.43873 20.3079ZM31.02 4.99911L31.02 5L31.02 4.99911Z" stroke="white"/>
</g>
<rect x="7" y="63" width="48" height="8" fill="url(#paint0_radial_1061_25027)"/>
<defs>
<filter id="filter0_d_1061_25027" x="0" y="0" width="62" height="70" filterUnits="userSpaceOnUse" color-interpolation-filters="sRGB">
<feFlood flood-opacity="0" result="BackgroundImageFix"/>
<feColorMatrix in="SourceAlpha" type="matrix" values="0 0 0 0 0 0 0 0 0 0 0 0 0 0 0 0 0 0 127 0" result="hardAlpha"/>
<feOffset dy="1"/>
<feGaussianBlur stdDeviation="2.5"/>
<feComposite in2="hardAlpha" operator="out"/>
<feColorMatrix type="matrix" values="0 0 0 0 0 0 0 0 0 0 0 0 0 0 0 0 0 0 0.15 0"/>
<feBlend mode="normal" in2="BackgroundImageFix" result="effect1_dropShadow_1061_25027"/>
<feBlend mode="normal" in="SourceGraphic" in2="effect1_dropShadow_1061_25027" result="shape"/>
</filter>
<radialGradient id="paint0_radial_1061_25027" cx="0" cy="0" r="1" gradientUnits="userSpaceOnUse" gradientTransform="translate(31 67) scale(24 4)">
<stop stop-color="#912740" stop-opacity="0.7"/>
<stop offset="1" stop-color="#912740" stop-opacity="0"/>
</radialGradient>
</defs>
</svg>
