<svg width="42" height="48" viewBox="0 0 42 48" fill="none" xmlns="http://www.w3.org/2000/svg">
<path d="M21.0163 0.500003L21.0168 0.500003C26.4515 0.508655 31.6611 2.66268 35.5017 6.48994C39.3424 10.3173 41.5 15.5051 41.5 20.9146C41.5002 25.2342 40.1226 29.4421 37.5661 32.9327C35.0103 36.4223 31.4081 39.0148 27.2782 40.3377C26.2032 40.6988 25.2385 41.326 24.4748 42.1601C23.7104 42.995 23.1725 44.0096 22.9116 45.1082L22.909 45.1191L22.9089 45.119L22.6349 46.1674C22.5584 46.5389 22.3571 46.8731 22.0646 47.1151C21.7678 47.3608 21.3951 47.4966 21.0097 47.5L21.0054 47.5C20.6175 47.5001 20.2413 47.3659 19.9413 47.12C19.6456 46.8776 19.4422 46.5414 19.3651 46.1674L19.0911 45.1191L19.0883 45.1082L19.0884 45.1082C18.8275 44.0096 18.2896 42.995 17.5252 42.1601C16.7615 41.326 15.7968 40.6988 14.7218 40.3377C10.5919 39.0148 6.98969 36.4223 4.4339 32.9327C1.87743 29.4422 0.499898 25.2343 0.500003 20.9148L21.0163 0.500003ZM21.0163 0.500003C18.322 0.498572 15.6538 1.02551 13.1642 2.05074M21.0163 0.500003L13.1642 2.05074M13.1642 2.05074C10.6745 3.07598 8.41228 4.57944 6.50677 6.4753M13.1642 2.05074L6.50677 6.4753M6.50677 6.4753C4.60126 8.37116 3.08986 10.6222 2.05912 13.0999M6.50677 6.4753L2.05912 13.0999M2.05912 13.0999C1.02842 15.5775 0.498602 18.233 0.500003 20.9146L2.05912 13.0999Z" fill="#912740" stroke="white"/>
</svg>
